<svg xmlns="http://www.w3.org/2000/svg" xmlns:xlink="http://www.w3.org/1999/xlink" width="500" zoomAndPan="magnify" viewBox="0 0 375 374.999991" height="500" preserveAspectRatio="xMidYMid meet" version="1.0"><defs><g/><clipPath id="3bb05211b9"><path d="M 193 165.324219 L 262.375 165.324219 L 262.375 265.625 L 193 265.625 Z M 193 165.324219 " clip-rule="nonzero"/></clipPath><clipPath id="466f6ba268"><path d="M 112.640625 165.324219 L 182 165.324219 L 182 265.625 L 112.640625 265.625 Z M 112.640625 165.324219 " clip-rule="nonzero"/></clipPath></defs><g clip-path="url(#3bb05211b9)"><path fill="#5e17eb" d="M 193.152344 265.625 C 193.152344 265.625 190.496094 238.609375 209.085938 218.101562 C 227.675781 197.589844 251.398438 192.589844 262.375 165.324219 C 262.375 165.324219 262.375 189.585938 242.722656 208.34375 C 223.070312 227.105469 205.367188 230.503906 193.152344 265.625 " fill-opacity="1" fill-rule="nonzero"/></g><path fill="#5e17eb" d="M 195.453125 263.125 C 195.453125 263.125 201.472656 242.113281 223.601562 228.105469 C 245.730469 214.097656 252.8125 209.597656 256.886719 196.839844 C 256.886719 196.839844 257.59375 218.890625 233.871094 230.503906 C 210.148438 242.113281 195.453125 263.125 195.453125 263.125 " fill-opacity="1" fill-rule="nonzero"/><path fill="#5e17eb" d="M 199.878906 261.875 C 199.878906 261.875 204.660156 250.867188 225.019531 240.363281 C 245.378906 229.855469 249.804688 227.605469 254.585938 217.101562 C 254.585938 217.101562 253.167969 231.359375 229.976562 244.863281 C 222.539062 248.617188 205.015625 254.371094 199.878906 261.875 " fill-opacity="1" fill-rule="nonzero"/><g clip-path="url(#466f6ba268)"><path fill="#5e17eb" d="M 181.863281 265.625 C 181.863281 265.625 184.515625 238.609375 165.929688 218.101562 C 147.339844 197.589844 123.617188 192.589844 112.640625 165.324219 C 112.640625 165.324219 112.640625 189.585938 132.292969 208.34375 C 151.941406 227.105469 169.644531 230.503906 181.863281 265.625 " fill-opacity="1" fill-rule="nonzero"/></g><path fill="#5e17eb" d="M 179.5625 263.125 C 179.5625 263.125 173.539062 242.113281 151.410156 228.105469 C 129.28125 214.097656 122.199219 209.597656 118.128906 196.839844 C 118.128906 196.839844 117.421875 218.890625 141.144531 230.503906 C 164.867188 242.113281 179.5625 263.125 179.5625 263.125 " fill-opacity="1" fill-rule="nonzero"/><path fill="#5e17eb" d="M 175.136719 261.875 C 175.136719 261.875 170.355469 250.867188 149.996094 240.363281 C 129.636719 229.855469 125.210938 227.605469 120.429688 217.101562 C 120.429688 217.101562 121.847656 231.359375 145.039062 244.863281 C 152.472656 248.617188 170 254.371094 175.136719 261.875 " fill-opacity="1" fill-rule="nonzero"/><g fill="#101010" fill-opacity="1"><g transform="translate(117.531773, 153.965929)"><g><path d="M 4.234375 8.9375 L 0.46875 1 L 22.8125 -9.578125 L 26.578125 -1.640625 Z M 5.125 10.828125 L 27.46875 0.25 C 28.539062 3.1875 28.472656 5.835938 27.265625 8.203125 C 26.066406 10.578125 23.769531 12.570312 20.375 14.1875 C 16.988281 15.789062 13.992188 16.304688 11.390625 15.734375 C 8.785156 15.160156 6.695312 13.523438 5.125 10.828125 Z M 5.125 10.828125 "/></g></g></g><g fill="#101010" fill-opacity="1"><g transform="translate(134.722045, 183.32163)"><g><path d="M -0.515625 -0.40625 L 16.46875 -12.796875 L 11.890625 -4.078125 L 13.546875 -2.75 L 20.21875 -15.484375 L 27.125 -9.984375 L 15.421875 12.328125 L 8.546875 6.828125 L 12.515625 -0.734375 L 10.84375 -2.0625 L 6.890625 5.515625 Z M -0.515625 -0.40625 "/></g></g></g><g fill="#101010" fill-opacity="1"><g transform="translate(161.01471, 201.209452)"><g><path d="M 11.390625 2.5 L 23.515625 -11.21875 L 20.078125 4.40625 Z M 15.796875 -21.84375 L 4.375 -8.96875 L 7.59375 -23.640625 Z M 27.859375 -19.1875 L 9.09375 2 L -0.765625 -0.171875 L 18.03125 -21.34375 Z M 27.859375 -19.1875 "/></g></g></g><g fill="#101010" fill-opacity="1"><g transform="translate(195.581978, 205.760979)"><g><path d="M 11.25 -3.0625 L 15.640625 -20.828125 L 19.84375 -5.390625 Z M 3.890625 -26.671875 L -0.265625 -9.96875 L -4.203125 -24.484375 Z M 15.796875 -29.921875 L 8.984375 -2.4375 L -0.75 0.203125 L 6.09375 -27.28125 Z M 15.796875 -29.921875 "/></g></g></g><g fill="#101010" fill-opacity="1"><g transform="translate(227.858627, 193.776755)"><g><path d="M 8.109375 -7.046875 L 6.125 -20.484375 L 13.625 -11.859375 Z M 7.46875 -6.484375 L 0.84375 -0.734375 L -15.375 -19.390625 L -8.75 -25.140625 Z M 7.46875 -6.484375 "/></g></g></g><g fill="#101010" fill-opacity="1"><g transform="translate(249.217571, 172.055363)"><g><path d="M 4.03125 -8.875 L 0.453125 -1.015625 L -22.0625 -11.21875 L -18.484375 -19.078125 Z M -18.1875 -19.734375 L -14.65625 -27.53125 L -5.96875 -23.59375 Z M -0.578125 -17.5625 L -7.4375 -14.765625 L -9.859375 -21.78125 Z M 4.328125 -9.53125 L -2.234375 -22.0625 L 7.90625 -17.46875 Z M 4.328125 -9.53125 "/></g></g></g></svg>